<svg xmlns="http://www.w3.org/2000/svg" width="32" height="33" fill="none"><rect width="32" height="32" y=".07" fill="#091315" rx="16"/><g clip-path="url(#a)"><path fill="#fff" d="m20.5 8.074-2.075-.004c-2.33 0-3.837 1.546-3.837 3.938v1.815h-2.086a.326.326 0 0 0-.326.327v2.63c0 .18.146.327.326.327h2.086v6.637c0 .18.146.326.326.326h2.722c.18 0 .326-.146.326-.326v-6.637h2.44c.18 0 .326-.146.326-.327v-2.63a.327.327 0 0 0-.326-.327h-2.44v-1.539c0-.74.177-1.115 1.14-1.115H20.5c.18 0 .326-.146.326-.327V8.4a.326.326 0 0 0-.326-.326Z"/></g><defs><clipPath id="a"><path fill="#fff" d="M8.5 8.07h16v16h-16z"/></clipPath></defs></svg>