<svg xmlns="http://www.w3.org/2000/svg" width="32" height="33" fill="none"><rect width="32" height="32" y=".07" fill="#091315" rx="16"/><g fill="#fff" clip-path="url(#a)"><path d="M19.5 8.07h-6a5 5 0 0 0-5 5v6a5 5 0 0 0 5 5h6a5 5 0 0 0 5-5v-6a5 5 0 0 0-5-5Zm3.5 11c0 1.93-1.57 3.5-3.5 3.5h-6c-1.93 0-3.5-1.57-3.5-3.5v-6c0-1.93 1.57-3.5 3.5-3.5h6c1.93 0 3.5 1.57 3.5 3.5v6Z"/><path d="M16.5 12.07a4 4 0 1 0 0 8 4 4 0 0 0 0-8Zm0 6.5a2.503 2.503 0 0 1-2.5-2.5c0-1.379 1.122-2.5 2.5-2.5s2.5 1.121 2.5 2.5c0 1.378-1.122 2.5-2.5 2.5Zm4.299-6.266a.533.533 0 1 0 0-1.066.533.533 0 0 0 0 1.066Z"/></g><defs><clipPath id="a"><path fill="#fff" d="M8.5 8.07h16v16h-16z"/></clipPath></defs></svg>