<svg xmlns="http://www.w3.org/2000/svg" width="32" height="33" fill="none"><rect width="32" height="32" y=".07" fill="#091315" rx="16"/><g fill="#fff" clip-path="url(#a)"><path d="M11.183 9.082a1.683 1.683 0 1 0 0 3.365 1.683 1.683 0 0 0 0-3.365ZM9.73 13.723h2.902v9.335H9.73v-9.335Zm10.29-.231c-1.411 0-2.358.774-2.745 1.508h-.039v-1.276h-2.783v9.336h2.9v-4.62c0-1.217.23-2.396 1.74-2.396 1.488 0 1.508 1.392 1.508 2.474v4.54h2.9v-5.12c0-2.513-.543-4.447-3.48-4.447Z"/></g><defs><clipPath id="a"><path fill="#fff" d="M9.5 9.07h14v14h-14z"/></clipPath></defs></svg>