<svg xmlns="http://www.w3.org/2000/svg" width="32" height="33" fill="none"><rect width="32" height="32" y=".07" fill="#091315" rx="16"/><g clip-path="url(#a)"><path fill="#fff" d="M22.652 9.064v11.59a.4.4 0 0 1-.548.372l-7.452-2.98 6.67-8.152a.08.08 0 0 0-.113-.112l-8.957 7.463-4.548-1.3a.4.4 0 0 1-.054-.748l14.438-6.498a.4.4 0 0 1 .564.365Zm-9.008 13.054a.4.4 0 0 0 .692.147l1.877-2.253-3.57-1.395 1.001 3.501Z"/></g><defs><clipPath id="a"><path fill="#fff" d="M6.5 8.07h16v14.933h-16z"/></clipPath></defs></svg>